<svg xmlns="http://www.w3.org/2000/svg" width="302" height="277" viewBox="0 0 302 277">
<g>
<path d="M 139.42 150.00 C136.99,153.30 134.35,156.00 133.55,156.00 C132.76,156.00 126.70,149.81 120.08,142.25 C109.38,130.01 108.06,128.09 108.03,124.77 C108.01,122.09 107.18,120.11 105.09,117.78 C102.56,114.95 101.54,114.52 97.29,114.51 L 92.39 114.50 L 73.20 97.57 C62.64,88.25 54.00,80.35 54.00,80.00 C54.00,78.84 65.41,74.04 73.50,71.79 C84.04,68.88 102.54,68.67 111.46,71.37 C132.62,77.79 145.83,93.36 147.85,114.29 C149.26,128.87 146.57,140.29 139.42,150.00 ZM 154.39 206.75 C153.39,208.33 150.83,208.53 128.28,208.77 C108.68,208.98 103.04,208.75 102.19,207.73 C100.93,206.21 87.00,171.11 87.00,169.45 C87.00,168.08 104.68,144.79 106.51,143.75 C107.23,143.34 108.43,143.26 109.16,143.58 C110.17,144.02 148.79,195.09 154.49,203.53 C155.16,204.52 155.13,205.57 154.39,206.75 ZM 72.44 148.48 C67.65,149.32 62.26,150.00 60.45,150.00 C57.29,150.00 57.08,149.74 55.01,143.54 C53.14,137.91 52.33,136.78 48.75,134.79 C44.26,132.29 43.57,131.24 44.94,129.06 C45.71,127.84 46.44,127.83 49.86,128.95 C53.41,130.12 54.88,130.03 62.57,128.15 C71.29,126.02 77.02,123.45 77.71,121.37 C78.10,120.21 50.83,95.00 49.19,95.00 C48.68,95.00 47.10,95.92 45.66,97.05 C42.44,99.59 40.48,98.75 36.59,93.13 C33.36,88.46 33.50,85.64 36.99,85.15 C38.35,84.96 42.00,82.60 45.11,79.90 C48.23,77.21 51.25,75.00 51.83,75.00 C54.97,75.00 53.59,77.79 47.87,83.00 C42.96,87.48 41.77,89.09 42.67,90.02 C43.57,90.97 44.34,90.88 46.14,89.62 C47.41,88.73 49.25,88.00 50.24,88.00 C52.17,88.00 103.50,134.66 103.50,136.41 C103.50,139.30 85.93,146.13 72.44,148.48 ZM 70.71 190.00 L 56.44 208.50 L 50.47 208.76 C41.76,209.14 41.57,208.87 43.43,199.04 L 43.54 198.47 C44.84,191.63 45.47,188.30 44.51,185.54 C43.58,182.86 41.15,180.70 36.39,176.35 C20.80,162.13 18.20,159.83 18.18,157.50 C18.17,157.03 18.27,156.57 18.38,156.01 C18.40,155.93 18.41,155.86 18.43,155.78 C18.80,153.97 19.35,151.04 19.66,149.25 C19.97,147.46 20.63,146.00 21.14,146.00 C23.42,146.00 34.00,152.18 34.00,153.51 C34.00,155.26 33.08,155.36 29.50,154.00 C28.05,153.45 25.77,153.27 24.43,153.61 C18.40,155.12 24.30,161.98 34.39,165.21 C36.10,165.76 47.40,166.57 59.50,167.01 C81.65,167.82 85.01,168.26 84.99,170.36 C84.98,170.99 78.56,179.82 70.71,190.00 ZM 44.40 120.54 C43.93,122.42 43.12,123.00 41.00,123.00 C38.62,123.00 38.13,122.50 37.57,119.53 C36.96,116.27 36.71,116.08 33.25,116.28 C28.40,116.57 27.75,113.93 31.66,109.81 C35.80,105.45 40.91,103.17 48.19,102.42 L 54.61 101.76 L 61.76 107.63 C65.69,110.86 68.93,114.08 68.95,114.78 C69.07,117.90 65.69,116.93 59.63,112.10 C56.10,109.30 52.72,107.00 52.11,107.00 C49.85,107.00 51.11,109.84 54.51,112.44 C57.47,114.69 57.85,115.42 56.96,117.07 C56.10,118.68 55.55,118.83 53.85,117.92 C50.53,116.14 45.13,117.64 44.40,120.54 ZM 35.98 147.25 C35.99,148.21 35.44,148.98 34.75,148.95 C32.45,148.86 21.91,142.94 21.33,141.41 C21.01,140.57 21.55,138.11 22.53,135.92 C24.27,132.07 24.27,131.92 22.41,130.56 C19.41,128.36 21.49,127.59 27.75,128.59 C32.50,129.34 33.55,129.87 33.80,131.62 C34.06,133.44 33.71,133.67 31.40,133.22 C29.49,132.86 28.29,133.25 27.34,134.54 C25.26,137.39 25.68,138.24 31.00,142.00 C33.73,143.93 35.97,146.29 35.98,147.25 Z" fill="rgb(39,52,137)"/>
<path d="M 231.47 206.55 C225.54,208.17 199.07,209.40 192.50,208.35 C179.58,206.29 166.76,200.73 159.69,194.11 C154.07,188.86 148.81,180.33 145.95,171.87 L 145.94 171.82 C144.92,168.79 144.38,167.20 144.61,165.74 C144.87,164.11 146.06,162.63 148.56,159.50 C157.48,148.35 161.28,136.71 161.31,120.50 C161.33,104.21 157.53,92.63 148.51,81.56 C146.03,78.52 144.00,75.80 144.00,75.51 C144.00,75.23 153.68,75.00 165.50,75.00 L 187.00 75.00 L 187.02 110.25 C187.04,149.36 187.59,155.81 191.40,161.84 C194.52,166.78 198.46,168.99 205.47,169.71 C214.10,170.60 221.43,167.12 224.47,160.69 C227.43,154.41 228.00,146.37 228.00,110.86 L 228.00 75.00 L 271.96 75.00 L 272.57 77.42 C272.90,78.75 272.99,97.77 272.77,119.67 C272.42,153.31 272.09,160.59 270.61,166.50 C265.40,187.35 252.19,200.86 231.47,206.55 Z" fill="rgb(242,148,12)"/>
<path d="M 0.00 138.50 L 0.00 0.00 L 151.00 0.00 L 302.00 0.00 L 302.00 138.50 L 302.00 277.00 L 151.00 277.00 L 0.00 277.00 L 0.00 138.50 ZM 70.71 190.00 C78.56,179.82 84.98,170.99 84.99,170.36 C85.01,168.26 81.65,167.82 59.50,167.01 C47.40,166.57 36.10,165.76 34.39,165.21 C24.30,161.98 18.40,155.12 24.43,153.61 C25.77,153.27 28.05,153.45 29.50,154.00 C33.08,155.36 34.00,155.26 34.00,153.51 C34.00,152.18 23.42,146.00 21.14,146.00 C20.63,146.00 19.97,147.46 19.66,149.25 C19.35,151.04 18.80,153.97 18.43,155.78 C17.70,159.40 17.28,158.92 36.39,176.35 C46.20,185.30 46.10,184.99 43.43,199.04 C41.57,208.87 41.76,209.14 50.47,208.76 L 56.44 208.50 L 70.71 190.00 ZM 154.39 206.75 C155.13,205.57 155.16,204.52 154.49,203.53 C148.79,195.09 110.17,144.02 109.16,143.58 C108.43,143.26 107.23,143.34 106.51,143.75 C104.68,144.79 87.00,168.08 87.00,169.45 C87.00,171.11 100.93,206.21 102.19,207.73 C103.04,208.75 108.68,208.98 128.28,208.77 C150.83,208.53 153.39,208.33 154.39,206.75 ZM 231.47 206.55 C252.19,200.86 265.40,187.35 270.61,166.50 C272.09,160.59 272.42,153.31 272.77,119.67 C272.99,97.77 272.90,78.75 272.57,77.42 L 271.96 75.00 L 249.98 75.00 L 228.00 75.00 L 228.00 110.86 C228.00,146.37 227.43,154.41 224.47,160.69 C221.43,167.12 214.10,170.60 205.47,169.71 C198.46,168.99 194.52,166.78 191.40,161.84 C187.59,155.81 187.04,149.36 187.02,110.25 L 187.00 75.00 L 165.50 75.00 C153.68,75.00 144.00,75.23 144.00,75.51 C144.00,75.80 146.03,78.52 148.51,81.56 C157.53,92.63 161.33,104.21 161.31,120.50 C161.28,136.71 157.48,148.35 148.56,159.50 C143.78,165.47 143.79,165.44 145.95,171.87 C148.81,180.33 154.07,188.86 159.69,194.11 C166.76,200.73 179.58,206.29 192.50,208.35 C199.07,209.40 225.54,208.17 231.47,206.55 ZM 139.42 150.00 C146.57,140.29 149.26,128.87 147.85,114.29 C145.83,93.36 132.62,77.79 111.46,71.37 C102.54,68.67 84.04,68.88 73.50,71.79 C65.41,74.04 54.00,78.84 54.00,80.00 C54.00,80.35 62.64,88.25 73.20,97.57 L 92.39 114.50 L 97.29 114.51 C101.54,114.52 102.56,114.95 105.09,117.78 C107.18,120.11 108.01,122.09 108.03,124.77 C108.06,128.09 109.38,130.01 120.08,142.25 C126.70,149.81 132.76,156.00 133.55,156.00 C134.35,156.00 136.99,153.30 139.42,150.00 ZM 72.44 148.48 C85.93,146.13 103.50,139.30 103.50,136.41 C103.50,134.66 52.17,88.00 50.24,88.00 C49.25,88.00 47.41,88.73 46.14,89.62 C44.34,90.88 43.57,90.97 42.67,90.02 C41.77,89.09 42.96,87.48 47.87,83.00 C53.59,77.79 54.97,75.00 51.83,75.00 C51.25,75.00 48.23,77.21 45.11,79.90 C42.00,82.60 38.35,84.96 36.99,85.15 C33.50,85.64 33.36,88.46 36.59,93.13 C40.48,98.75 42.44,99.59 45.66,97.05 C47.10,95.92 48.68,95.00 49.19,95.00 C50.83,95.00 78.10,120.21 77.71,121.37 C77.02,123.45 71.29,126.02 62.57,128.15 C54.88,130.03 53.41,130.12 49.86,128.95 C46.44,127.83 45.71,127.84 44.94,129.06 C43.57,131.24 44.26,132.29 48.75,134.79 C52.33,136.78 53.14,137.91 55.01,143.54 C57.08,149.74 57.29,150.00 60.45,150.00 C62.26,150.00 67.65,149.32 72.44,148.48 ZM 35.98 147.25 C35.97,146.29 33.73,143.93 31.00,142.00 C25.68,138.24 25.26,137.39 27.34,134.54 C28.29,133.25 29.49,132.86 31.40,133.22 C33.71,133.67 34.06,133.44 33.80,131.62 C33.55,129.87 32.50,129.34 27.75,128.59 C21.49,127.59 19.41,128.36 22.41,130.56 C24.27,131.92 24.27,132.07 22.53,135.92 C21.55,138.11 21.01,140.57 21.33,141.41 C21.91,142.94 32.45,148.86 34.75,148.95 C35.44,148.98 35.99,148.21 35.98,147.25 ZM 44.40 120.54 C45.13,117.64 50.53,116.14 53.85,117.92 C55.55,118.83 56.10,118.68 56.96,117.07 C57.85,115.42 57.47,114.69 54.51,112.44 C51.11,109.84 49.85,107.00 52.11,107.00 C52.72,107.00 56.10,109.30 59.63,112.10 C65.69,116.93 69.07,117.90 68.95,114.78 C68.93,114.08 65.69,110.86 61.76,107.63 L 54.61 101.76 L 48.19 102.42 C40.91,103.17 35.80,105.45 31.66,109.81 C27.75,113.93 28.40,116.57 33.25,116.28 C36.71,116.08 36.96,116.27 37.57,119.53 C38.13,122.50 38.62,123.00 41.00,123.00 C43.12,123.00 43.93,122.42 44.40,120.54 Z" fill="rgb(254,254,253)"/>
</g>
</svg>